<svg width="400" height="300" viewBox="0 0 400 300" fill="none" xmlns="http://www.w3.org/2000/svg">
<g clip-path="url(#clip0_10148_144526)">
<g clip-path="url(#clip1_10148_144526)">
<g clip-path="url(#clip2_10148_144526)">
<circle cx="10.8909" cy="6.02419" r="0.990013" fill="#959595" fill-opacity="0.3"/>
<circle cx="26.0711" cy="6.02419" r="0.990013" fill="#959595" fill-opacity="0.3"/>
<circle cx="41.2517" cy="6.02419" r="0.990013" fill="#959595" fill-opacity="0.3"/>
<circle cx="56.4309" cy="6.02419" r="0.990013" fill="#959595" fill-opacity="0.3"/>
<circle cx="71.6118" cy="6.02419" r="0.990013" fill="#959595" fill-opacity="0.3"/>
<circle cx="86.7918" cy="6.02419" r="0.990013" fill="#959595" fill-opacity="0.3"/>
<circle cx="101.972" cy="6.02419" r="0.990013" fill="#959595" fill-opacity="0.3"/>
<circle cx="117.153" cy="6.02419" r="0.990013" fill="#959595" fill-opacity="0.3"/>
<circle cx="132.332" cy="6.02419" r="0.990013" fill="#959595" fill-opacity="0.3"/>
<circle cx="147.513" cy="6.02419" r="0.990013" fill="#959595" fill-opacity="0.3"/>
<circle cx="162.693" cy="6.02419" r="0.990013" fill="#959595" fill-opacity="0.3"/>
<circle cx="177.873" cy="6.02419" r="0.990013" fill="#959595" fill-opacity="0.3"/>
<circle cx="193.054" cy="6.02419" r="0.990013" fill="#959595" fill-opacity="0.3"/>
<circle cx="208.233" cy="6.02419" r="0.990013" fill="#959595" fill-opacity="0.3"/>
<circle cx="223.413" cy="6.02419" r="0.990013" fill="#959595" fill-opacity="0.3"/>
<circle cx="238.594" cy="6.02419" r="0.990013" fill="#959595" fill-opacity="0.3"/>
<circle cx="253.774" cy="6.02419" r="0.990013" fill="#959595" fill-opacity="0.3"/>
<circle cx="268.955" cy="6.02419" r="0.990013" fill="#959595" fill-opacity="0.3"/>
<circle cx="284.134" cy="6.02419" r="0.990013" fill="#959595" fill-opacity="0.3"/>
<circle cx="299.314" cy="6.02419" r="0.990013" fill="#959595" fill-opacity="0.3"/>
<circle cx="314.495" cy="6.02419" r="0.990013" fill="#959595" fill-opacity="0.3"/>
<circle cx="329.675" cy="6.02419" r="0.990013" fill="#959595" fill-opacity="0.3"/>
<circle cx="344.856" cy="6.02419" r="0.990013" fill="#959595" fill-opacity="0.3"/>
<circle cx="360.035" cy="6.02419" r="0.990013" fill="#959595" fill-opacity="0.3"/>
<circle cx="375.215" cy="6.02419" r="0.990013" fill="#959595" fill-opacity="0.3"/>
<circle cx="390.396" cy="6.02419" r="0.990013" fill="#959595" fill-opacity="0.3"/>
</g>
<g clip-path="url(#clip3_10148_144526)">
<circle cx="10.8909" cy="21.0242" r="0.990013" fill="#959595" fill-opacity="0.3"/>
<circle cx="26.0711" cy="21.0242" r="0.990013" fill="#959595" fill-opacity="0.3"/>
<circle cx="41.2517" cy="21.0242" r="0.990013" fill="#959595" fill-opacity="0.3"/>
<circle cx="56.4309" cy="21.0242" r="0.990013" fill="#959595" fill-opacity="0.3"/>
<circle cx="71.6118" cy="21.0242" r="0.990013" fill="#959595" fill-opacity="0.3"/>
<circle cx="86.7918" cy="21.0242" r="0.990013" fill="#959595" fill-opacity="0.3"/>
<circle cx="101.972" cy="21.0242" r="0.990013" fill="#959595" fill-opacity="0.3"/>
<circle cx="117.153" cy="21.0242" r="0.990013" fill="#959595" fill-opacity="0.3"/>
<circle cx="132.332" cy="21.0242" r="0.990013" fill="#959595" fill-opacity="0.3"/>
<circle cx="147.513" cy="21.0242" r="0.990013" fill="#959595" fill-opacity="0.3"/>
<circle cx="162.693" cy="21.0242" r="0.990013" fill="#959595" fill-opacity="0.3"/>
<circle cx="177.873" cy="21.0242" r="0.990013" fill="#959595" fill-opacity="0.3"/>
<circle cx="193.054" cy="21.0242" r="0.990013" fill="#959595" fill-opacity="0.3"/>
<circle cx="208.233" cy="21.0242" r="0.990013" fill="#959595" fill-opacity="0.3"/>
<circle cx="223.413" cy="21.0242" r="0.990013" fill="#959595" fill-opacity="0.3"/>
<circle cx="238.594" cy="21.0242" r="0.990013" fill="#959595" fill-opacity="0.3"/>
<circle cx="253.774" cy="21.0242" r="0.990013" fill="#959595" fill-opacity="0.3"/>
<circle cx="268.955" cy="21.0242" r="0.990013" fill="#959595" fill-opacity="0.3"/>
<circle cx="284.134" cy="21.0242" r="0.990013" fill="#959595" fill-opacity="0.3"/>
<circle cx="299.314" cy="21.0242" r="0.990013" fill="#959595" fill-opacity="0.3"/>
<circle cx="314.495" cy="21.0242" r="0.990013" fill="#959595" fill-opacity="0.3"/>
<circle cx="329.675" cy="21.0242" r="0.990013" fill="#959595" fill-opacity="0.3"/>
<circle cx="344.856" cy="21.0242" r="0.990013" fill="#959595" fill-opacity="0.3"/>
<circle cx="360.035" cy="21.0242" r="0.990013" fill="#959595" fill-opacity="0.3"/>
<circle cx="375.215" cy="21.0242" r="0.990013" fill="#959595" fill-opacity="0.3"/>
<circle cx="390.396" cy="21.0242" r="0.990013" fill="#959595" fill-opacity="0.3"/>
</g>
<g clip-path="url(#clip4_10148_144526)">
<circle cx="10.8909" cy="36.0242" r="0.990013" fill="#959595" fill-opacity="0.3"/>
<circle cx="26.0711" cy="36.0242" r="0.990013" fill="#959595" fill-opacity="0.3"/>
<circle cx="41.2517" cy="36.0242" r="0.990013" fill="#959595" fill-opacity="0.3"/>
<circle cx="56.4309" cy="36.0242" r="0.990013" fill="#959595" fill-opacity="0.3"/>
<circle cx="71.6118" cy="36.0242" r="0.990013" fill="#959595" fill-opacity="0.3"/>
<circle cx="86.7918" cy="36.0242" r="0.990013" fill="#959595" fill-opacity="0.3"/>
<circle cx="101.972" cy="36.0242" r="0.990013" fill="#959595" fill-opacity="0.3"/>
<circle cx="117.153" cy="36.0242" r="0.990013" fill="#959595" fill-opacity="0.3"/>
<circle cx="132.332" cy="36.0242" r="0.990013" fill="#959595" fill-opacity="0.3"/>
<circle cx="147.513" cy="36.0242" r="0.990013" fill="#959595" fill-opacity="0.3"/>
<circle cx="162.693" cy="36.0242" r="0.990013" fill="#959595" fill-opacity="0.3"/>
<circle cx="177.873" cy="36.0242" r="0.990013" fill="#959595" fill-opacity="0.3"/>
<circle cx="193.054" cy="36.0242" r="0.990013" fill="#959595" fill-opacity="0.3"/>
<circle cx="208.233" cy="36.0242" r="0.990013" fill="#959595" fill-opacity="0.3"/>
<circle cx="223.413" cy="36.0242" r="0.990013" fill="#959595" fill-opacity="0.3"/>
<circle cx="238.594" cy="36.0242" r="0.990013" fill="#959595" fill-opacity="0.3"/>
<circle cx="253.774" cy="36.0242" r="0.990013" fill="#959595" fill-opacity="0.3"/>
<circle cx="268.955" cy="36.0242" r="0.990013" fill="#959595" fill-opacity="0.3"/>
<circle cx="284.134" cy="36.0242" r="0.990013" fill="#959595" fill-opacity="0.3"/>
<circle cx="299.314" cy="36.0242" r="0.990013" fill="#959595" fill-opacity="0.3"/>
<circle cx="314.495" cy="36.0242" r="0.990013" fill="#959595" fill-opacity="0.3"/>
<circle cx="329.675" cy="36.0242" r="0.990013" fill="#959595" fill-opacity="0.3"/>
<circle cx="344.856" cy="36.0242" r="0.990013" fill="#959595" fill-opacity="0.3"/>
<circle cx="360.035" cy="36.0242" r="0.990013" fill="#959595" fill-opacity="0.3"/>
<circle cx="375.215" cy="36.0242" r="0.990013" fill="#959595" fill-opacity="0.3"/>
<circle cx="390.396" cy="36.0242" r="0.990013" fill="#959595" fill-opacity="0.3"/>
</g>
<g clip-path="url(#clip5_10148_144526)">
<circle cx="10.8909" cy="51.0242" r="0.990013" fill="#959595" fill-opacity="0.3"/>
<circle cx="26.0711" cy="51.0242" r="0.990013" fill="#959595" fill-opacity="0.3"/>
<circle cx="41.2517" cy="51.0242" r="0.990013" fill="#959595" fill-opacity="0.3"/>
<circle cx="56.4309" cy="51.0242" r="0.990013" fill="#959595" fill-opacity="0.3"/>
<circle cx="71.6118" cy="51.0242" r="0.990013" fill="#959595" fill-opacity="0.3"/>
<circle cx="86.7918" cy="51.0242" r="0.990013" fill="#959595" fill-opacity="0.3"/>
<circle cx="101.972" cy="51.0242" r="0.990013" fill="#959595" fill-opacity="0.3"/>
<circle cx="117.153" cy="51.0242" r="0.990013" fill="#959595" fill-opacity="0.3"/>
<circle cx="132.332" cy="51.0242" r="0.990013" fill="#959595" fill-opacity="0.3"/>
<circle cx="147.513" cy="51.0242" r="0.990013" fill="#959595" fill-opacity="0.3"/>
<circle cx="162.693" cy="51.0242" r="0.990013" fill="#959595" fill-opacity="0.3"/>
<circle cx="177.873" cy="51.0242" r="0.990013" fill="#959595" fill-opacity="0.3"/>
<circle cx="193.054" cy="51.0242" r="0.990013" fill="#959595" fill-opacity="0.3"/>
<circle cx="208.233" cy="51.0242" r="0.990013" fill="#959595" fill-opacity="0.3"/>
<circle cx="223.413" cy="51.0242" r="0.990013" fill="#959595" fill-opacity="0.3"/>
<circle cx="238.594" cy="51.0242" r="0.990013" fill="#959595" fill-opacity="0.3"/>
<circle cx="253.774" cy="51.0242" r="0.990013" fill="#959595" fill-opacity="0.3"/>
<circle cx="268.955" cy="51.0242" r="0.990013" fill="#959595" fill-opacity="0.3"/>
<circle cx="284.134" cy="51.0242" r="0.990013" fill="#959595" fill-opacity="0.3"/>
<circle cx="299.314" cy="51.0242" r="0.990013" fill="#959595" fill-opacity="0.3"/>
<circle cx="314.495" cy="51.0242" r="0.990013" fill="#959595" fill-opacity="0.3"/>
<circle cx="329.675" cy="51.0242" r="0.990013" fill="#959595" fill-opacity="0.3"/>
<circle cx="344.856" cy="51.0242" r="0.990013" fill="#959595" fill-opacity="0.3"/>
<circle cx="360.035" cy="51.0242" r="0.990013" fill="#959595" fill-opacity="0.3"/>
<circle cx="375.215" cy="51.0242" r="0.990013" fill="#959595" fill-opacity="0.3"/>
<circle cx="390.396" cy="51.0242" r="0.990013" fill="#959595" fill-opacity="0.3"/>
</g>
<g clip-path="url(#clip6_10148_144526)">
<circle cx="10.8909" cy="66.0242" r="0.990013" fill="#959595" fill-opacity="0.3"/>
<circle cx="26.0711" cy="66.0242" r="0.990013" fill="#959595" fill-opacity="0.3"/>
<circle cx="41.2517" cy="66.0242" r="0.990013" fill="#959595" fill-opacity="0.3"/>
<circle cx="56.4309" cy="66.0242" r="0.990013" fill="#959595" fill-opacity="0.3"/>
<circle cx="71.6118" cy="66.0242" r="0.990013" fill="#959595" fill-opacity="0.3"/>
<circle cx="86.7918" cy="66.0242" r="0.990013" fill="#959595" fill-opacity="0.3"/>
<circle cx="101.972" cy="66.0242" r="0.990013" fill="#959595" fill-opacity="0.3"/>
<circle cx="117.153" cy="66.0242" r="0.990013" fill="#959595" fill-opacity="0.3"/>
<circle cx="132.332" cy="66.0242" r="0.990013" fill="#959595" fill-opacity="0.3"/>
<circle cx="147.513" cy="66.0242" r="0.990013" fill="#959595" fill-opacity="0.3"/>
<circle cx="162.693" cy="66.0242" r="0.990013" fill="#959595" fill-opacity="0.3"/>
<circle cx="177.873" cy="66.0242" r="0.990013" fill="#959595" fill-opacity="0.3"/>
<circle cx="193.054" cy="66.0242" r="0.990013" fill="#959595" fill-opacity="0.3"/>
<circle cx="208.233" cy="66.0242" r="0.990013" fill="#959595" fill-opacity="0.3"/>
<circle cx="223.413" cy="66.0242" r="0.990013" fill="#959595" fill-opacity="0.3"/>
<circle cx="238.594" cy="66.0242" r="0.990013" fill="#959595" fill-opacity="0.3"/>
<circle cx="253.774" cy="66.0242" r="0.990013" fill="#959595" fill-opacity="0.3"/>
<circle cx="268.955" cy="66.0242" r="0.990013" fill="#959595" fill-opacity="0.3"/>
<circle cx="284.134" cy="66.0242" r="0.990013" fill="#959595" fill-opacity="0.3"/>
<circle cx="299.314" cy="66.0242" r="0.990013" fill="#959595" fill-opacity="0.3"/>
<circle cx="314.495" cy="66.0242" r="0.990013" fill="#959595" fill-opacity="0.3"/>
<circle cx="329.675" cy="66.0242" r="0.990013" fill="#959595" fill-opacity="0.3"/>
<circle cx="344.856" cy="66.0242" r="0.990013" fill="#959595" fill-opacity="0.3"/>
<circle cx="360.035" cy="66.0242" r="0.990013" fill="#959595" fill-opacity="0.3"/>
<circle cx="375.215" cy="66.0242" r="0.990013" fill="#959595" fill-opacity="0.3"/>
<circle cx="390.396" cy="66.0242" r="0.990013" fill="#959595" fill-opacity="0.3"/>
</g>
<g clip-path="url(#clip7_10148_144526)">
<circle cx="10.8909" cy="81.0242" r="0.990013" fill="#959595" fill-opacity="0.3"/>
<circle cx="26.0711" cy="81.0242" r="0.990013" fill="#959595" fill-opacity="0.3"/>
<circle cx="41.2517" cy="81.0242" r="0.990013" fill="#959595" fill-opacity="0.3"/>
<circle cx="56.4309" cy="81.0242" r="0.990013" fill="#959595" fill-opacity="0.3"/>
<circle cx="71.6118" cy="81.0242" r="0.990013" fill="#959595" fill-opacity="0.3"/>
<circle cx="86.7918" cy="81.0242" r="0.990013" fill="#959595" fill-opacity="0.3"/>
<circle cx="101.972" cy="81.0242" r="0.990013" fill="#959595" fill-opacity="0.3"/>
<circle cx="117.153" cy="81.0242" r="0.990013" fill="#959595" fill-opacity="0.3"/>
<circle cx="132.332" cy="81.0242" r="0.990013" fill="#959595" fill-opacity="0.3"/>
<circle cx="147.513" cy="81.0242" r="0.990013" fill="#959595" fill-opacity="0.3"/>
<circle cx="162.693" cy="81.0242" r="0.990013" fill="#959595" fill-opacity="0.3"/>
<circle cx="177.873" cy="81.0242" r="0.990013" fill="#959595" fill-opacity="0.3"/>
<circle cx="193.054" cy="81.0242" r="0.990013" fill="#959595" fill-opacity="0.3"/>
<circle cx="208.233" cy="81.0242" r="0.990013" fill="#959595" fill-opacity="0.3"/>
<circle cx="223.413" cy="81.0242" r="0.990013" fill="#959595" fill-opacity="0.3"/>
<circle cx="238.594" cy="81.0242" r="0.990013" fill="#959595" fill-opacity="0.3"/>
<circle cx="253.774" cy="81.0242" r="0.990013" fill="#959595" fill-opacity="0.3"/>
<circle cx="268.955" cy="81.0242" r="0.990013" fill="#959595" fill-opacity="0.3"/>
<circle cx="284.134" cy="81.0242" r="0.990013" fill="#959595" fill-opacity="0.3"/>
<circle cx="299.314" cy="81.0242" r="0.990013" fill="#959595" fill-opacity="0.3"/>
<circle cx="314.495" cy="81.0242" r="0.990013" fill="#959595" fill-opacity="0.3"/>
<circle cx="329.675" cy="81.0242" r="0.990013" fill="#959595" fill-opacity="0.3"/>
<circle cx="344.856" cy="81.0242" r="0.990013" fill="#959595" fill-opacity="0.3"/>
<circle cx="360.035" cy="81.0242" r="0.990013" fill="#959595" fill-opacity="0.3"/>
<circle cx="375.215" cy="81.0242" r="0.990013" fill="#959595" fill-opacity="0.3"/>
<circle cx="390.396" cy="81.0242" r="0.990013" fill="#959595" fill-opacity="0.3"/>
</g>
<g clip-path="url(#clip8_10148_144526)">
<circle cx="10.8909" cy="96.0242" r="0.990013" fill="#959595" fill-opacity="0.3"/>
<circle cx="26.0711" cy="96.0242" r="0.990013" fill="#959595" fill-opacity="0.3"/>
<circle cx="41.2517" cy="96.0242" r="0.990013" fill="#959595" fill-opacity="0.3"/>
<circle cx="56.4309" cy="96.0242" r="0.990013" fill="#959595" fill-opacity="0.3"/>
<circle cx="71.6118" cy="96.0242" r="0.990013" fill="#959595" fill-opacity="0.3"/>
<circle cx="86.7918" cy="96.0242" r="0.990013" fill="#959595" fill-opacity="0.3"/>
<circle cx="101.972" cy="96.0242" r="0.990013" fill="#959595" fill-opacity="0.3"/>
<circle cx="117.153" cy="96.0242" r="0.990013" fill="#959595" fill-opacity="0.3"/>
<circle cx="132.332" cy="96.0242" r="0.990013" fill="#959595" fill-opacity="0.3"/>
<circle cx="147.513" cy="96.0242" r="0.990013" fill="#959595" fill-opacity="0.3"/>
<circle cx="162.693" cy="96.0242" r="0.990013" fill="#959595" fill-opacity="0.3"/>
<circle cx="177.873" cy="96.0242" r="0.990013" fill="#959595" fill-opacity="0.3"/>
<circle cx="193.054" cy="96.0242" r="0.990013" fill="#959595" fill-opacity="0.3"/>
<circle cx="208.233" cy="96.0242" r="0.990013" fill="#959595" fill-opacity="0.3"/>
<circle cx="223.413" cy="96.0242" r="0.990013" fill="#959595" fill-opacity="0.3"/>
<circle cx="238.594" cy="96.0242" r="0.990013" fill="#959595" fill-opacity="0.3"/>
<circle cx="253.774" cy="96.0242" r="0.990013" fill="#959595" fill-opacity="0.3"/>
<circle cx="268.955" cy="96.0242" r="0.990013" fill="#959595" fill-opacity="0.3"/>
<circle cx="284.134" cy="96.0242" r="0.990013" fill="#959595" fill-opacity="0.3"/>
<circle cx="299.314" cy="96.0242" r="0.990013" fill="#959595" fill-opacity="0.3"/>
<circle cx="314.495" cy="96.0242" r="0.990013" fill="#959595" fill-opacity="0.3"/>
<circle cx="329.675" cy="96.0242" r="0.990013" fill="#959595" fill-opacity="0.3"/>
<circle cx="344.856" cy="96.0242" r="0.990013" fill="#959595" fill-opacity="0.3"/>
<circle cx="360.035" cy="96.0242" r="0.990013" fill="#959595" fill-opacity="0.3"/>
<circle cx="375.215" cy="96.0242" r="0.990013" fill="#959595" fill-opacity="0.3"/>
<circle cx="390.396" cy="96.0242" r="0.990013" fill="#959595" fill-opacity="0.3"/>
</g>
<g clip-path="url(#clip9_10148_144526)">
<circle cx="10.8909" cy="111.024" r="0.990013" fill="#959595" fill-opacity="0.3"/>
<circle cx="26.0711" cy="111.024" r="0.990013" fill="#959595" fill-opacity="0.3"/>
<circle cx="41.2517" cy="111.024" r="0.990013" fill="#959595" fill-opacity="0.3"/>
<circle cx="56.4309" cy="111.024" r="0.990013" fill="#959595" fill-opacity="0.3"/>
<circle cx="71.6118" cy="111.024" r="0.990013" fill="#959595" fill-opacity="0.3"/>
<circle cx="86.7918" cy="111.024" r="0.990013" fill="#959595" fill-opacity="0.3"/>
<circle cx="101.972" cy="111.024" r="0.990013" fill="#959595" fill-opacity="0.3"/>
<circle cx="117.153" cy="111.024" r="0.990013" fill="#959595" fill-opacity="0.3"/>
<circle cx="132.332" cy="111.024" r="0.990013" fill="#959595" fill-opacity="0.3"/>
<circle cx="147.513" cy="111.024" r="0.990013" fill="#959595" fill-opacity="0.3"/>
<circle cx="162.693" cy="111.024" r="0.990013" fill="#959595" fill-opacity="0.3"/>
<circle cx="177.873" cy="111.024" r="0.990013" fill="#959595" fill-opacity="0.3"/>
<circle cx="193.054" cy="111.024" r="0.990013" fill="#959595" fill-opacity="0.3"/>
<circle cx="208.233" cy="111.024" r="0.990013" fill="#959595" fill-opacity="0.3"/>
<circle cx="223.413" cy="111.024" r="0.990013" fill="#959595" fill-opacity="0.3"/>
<circle cx="238.594" cy="111.024" r="0.990013" fill="#959595" fill-opacity="0.3"/>
<circle cx="253.774" cy="111.024" r="0.990013" fill="#959595" fill-opacity="0.3"/>
<circle cx="268.955" cy="111.024" r="0.990013" fill="#959595" fill-opacity="0.3"/>
<circle cx="284.134" cy="111.024" r="0.990013" fill="#959595" fill-opacity="0.3"/>
<circle cx="299.314" cy="111.024" r="0.990013" fill="#959595" fill-opacity="0.3"/>
<circle cx="314.495" cy="111.024" r="0.990013" fill="#959595" fill-opacity="0.3"/>
<circle cx="329.675" cy="111.024" r="0.990013" fill="#959595" fill-opacity="0.3"/>
<circle cx="344.856" cy="111.024" r="0.990013" fill="#959595" fill-opacity="0.3"/>
<circle cx="360.035" cy="111.024" r="0.990013" fill="#959595" fill-opacity="0.3"/>
<circle cx="375.215" cy="111.024" r="0.990013" fill="#959595" fill-opacity="0.3"/>
<circle cx="390.396" cy="111.024" r="0.990013" fill="#959595" fill-opacity="0.3"/>
</g>
<g clip-path="url(#clip10_10148_144526)">
<circle cx="10.8909" cy="126.024" r="0.990013" fill="#959595" fill-opacity="0.3"/>
<circle cx="26.0711" cy="126.024" r="0.990013" fill="#959595" fill-opacity="0.3"/>
<circle cx="41.2517" cy="126.024" r="0.990013" fill="#959595" fill-opacity="0.3"/>
<circle cx="56.4309" cy="126.024" r="0.990013" fill="#959595" fill-opacity="0.3"/>
<circle cx="71.6118" cy="126.024" r="0.990013" fill="#959595" fill-opacity="0.3"/>
<circle cx="86.7918" cy="126.024" r="0.990013" fill="#959595" fill-opacity="0.3"/>
<circle cx="101.972" cy="126.024" r="0.990013" fill="#959595" fill-opacity="0.3"/>
<circle cx="117.153" cy="126.024" r="0.990013" fill="#959595" fill-opacity="0.3"/>
<circle cx="132.332" cy="126.024" r="0.990013" fill="#959595" fill-opacity="0.3"/>
<circle cx="147.513" cy="126.024" r="0.990013" fill="#959595" fill-opacity="0.3"/>
<circle cx="162.693" cy="126.024" r="0.990013" fill="#959595" fill-opacity="0.3"/>
<circle cx="177.873" cy="126.024" r="0.990013" fill="#959595" fill-opacity="0.3"/>
<circle cx="193.054" cy="126.024" r="0.990013" fill="#959595" fill-opacity="0.3"/>
<circle cx="208.233" cy="126.024" r="0.990013" fill="#959595" fill-opacity="0.3"/>
<circle cx="223.413" cy="126.024" r="0.990013" fill="#959595" fill-opacity="0.3"/>
<circle cx="238.594" cy="126.024" r="0.990013" fill="#959595" fill-opacity="0.3"/>
<circle cx="253.774" cy="126.024" r="0.990013" fill="#959595" fill-opacity="0.3"/>
<circle cx="268.955" cy="126.024" r="0.990013" fill="#959595" fill-opacity="0.3"/>
<circle cx="284.134" cy="126.024" r="0.990013" fill="#959595" fill-opacity="0.3"/>
<circle cx="299.314" cy="126.024" r="0.990013" fill="#959595" fill-opacity="0.3"/>
<circle cx="314.495" cy="126.024" r="0.990013" fill="#959595" fill-opacity="0.3"/>
<circle cx="329.675" cy="126.024" r="0.990013" fill="#959595" fill-opacity="0.3"/>
<circle cx="344.856" cy="126.024" r="0.990013" fill="#959595" fill-opacity="0.3"/>
<circle cx="360.035" cy="126.024" r="0.990013" fill="#959595" fill-opacity="0.3"/>
<circle cx="375.215" cy="126.024" r="0.990013" fill="#959595" fill-opacity="0.3"/>
<circle cx="390.396" cy="126.024" r="0.990013" fill="#959595" fill-opacity="0.3"/>
</g>
<g clip-path="url(#clip11_10148_144526)">
<circle cx="10.8909" cy="141.024" r="0.990013" fill="#959595" fill-opacity="0.3"/>
<circle cx="26.0711" cy="141.024" r="0.990013" fill="#959595" fill-opacity="0.3"/>
<circle cx="41.2517" cy="141.024" r="0.990013" fill="#959595" fill-opacity="0.3"/>
<circle cx="56.4309" cy="141.024" r="0.990013" fill="#959595" fill-opacity="0.3"/>
<circle cx="71.6118" cy="141.024" r="0.990013" fill="#959595" fill-opacity="0.3"/>
<circle cx="86.7918" cy="141.024" r="0.990013" fill="#959595" fill-opacity="0.3"/>
<circle cx="101.972" cy="141.024" r="0.990013" fill="#959595" fill-opacity="0.3"/>
<circle cx="117.153" cy="141.024" r="0.990013" fill="#959595" fill-opacity="0.3"/>
<circle cx="132.332" cy="141.024" r="0.990013" fill="#959595" fill-opacity="0.3"/>
<circle cx="147.513" cy="141.024" r="0.990013" fill="#959595" fill-opacity="0.3"/>
<circle cx="162.693" cy="141.024" r="0.990013" fill="#959595" fill-opacity="0.3"/>
<circle cx="177.873" cy="141.024" r="0.990013" fill="#959595" fill-opacity="0.3"/>
<circle cx="193.054" cy="141.024" r="0.990013" fill="#959595" fill-opacity="0.3"/>
<circle cx="208.233" cy="141.024" r="0.990013" fill="#959595" fill-opacity="0.3"/>
<circle cx="223.413" cy="141.024" r="0.990013" fill="#959595" fill-opacity="0.3"/>
<circle cx="238.594" cy="141.024" r="0.990013" fill="#959595" fill-opacity="0.3"/>
<circle cx="253.774" cy="141.024" r="0.990013" fill="#959595" fill-opacity="0.3"/>
<circle cx="268.955" cy="141.024" r="0.990013" fill="#959595" fill-opacity="0.3"/>
<circle cx="284.134" cy="141.024" r="0.990013" fill="#959595" fill-opacity="0.3"/>
<circle cx="299.314" cy="141.024" r="0.990013" fill="#959595" fill-opacity="0.3"/>
<circle cx="314.495" cy="141.024" r="0.990013" fill="#959595" fill-opacity="0.3"/>
<circle cx="329.675" cy="141.024" r="0.990013" fill="#959595" fill-opacity="0.3"/>
<circle cx="344.856" cy="141.024" r="0.990013" fill="#959595" fill-opacity="0.3"/>
<circle cx="360.035" cy="141.024" r="0.990013" fill="#959595" fill-opacity="0.3"/>
<circle cx="375.215" cy="141.024" r="0.990013" fill="#959595" fill-opacity="0.3"/>
<circle cx="390.396" cy="141.024" r="0.990013" fill="#959595" fill-opacity="0.3"/>
</g>
<g clip-path="url(#clip12_10148_144526)">
<circle cx="10.8909" cy="156.024" r="0.990013" fill="#959595" fill-opacity="0.3"/>
<circle cx="26.0711" cy="156.024" r="0.990013" fill="#959595" fill-opacity="0.3"/>
<circle cx="41.2517" cy="156.024" r="0.990013" fill="#959595" fill-opacity="0.3"/>
<circle cx="56.4309" cy="156.024" r="0.990013" fill="#959595" fill-opacity="0.3"/>
<circle cx="71.6118" cy="156.024" r="0.990013" fill="#959595" fill-opacity="0.3"/>
<circle cx="86.7918" cy="156.024" r="0.990013" fill="#959595" fill-opacity="0.3"/>
<circle cx="101.972" cy="156.024" r="0.990013" fill="#959595" fill-opacity="0.3"/>
<circle cx="117.153" cy="156.024" r="0.990013" fill="#959595" fill-opacity="0.3"/>
<circle cx="132.332" cy="156.024" r="0.990013" fill="#959595" fill-opacity="0.3"/>
<circle cx="147.513" cy="156.024" r="0.990013" fill="#959595" fill-opacity="0.3"/>
<circle cx="162.693" cy="156.024" r="0.990013" fill="#959595" fill-opacity="0.3"/>
<circle cx="177.873" cy="156.024" r="0.990013" fill="#959595" fill-opacity="0.3"/>
<circle cx="193.054" cy="156.024" r="0.990013" fill="#959595" fill-opacity="0.3"/>
<circle cx="208.233" cy="156.024" r="0.990013" fill="#959595" fill-opacity="0.3"/>
<circle cx="223.413" cy="156.024" r="0.990013" fill="#959595" fill-opacity="0.3"/>
<circle cx="238.594" cy="156.024" r="0.990013" fill="#959595" fill-opacity="0.3"/>
<circle cx="253.774" cy="156.024" r="0.990013" fill="#959595" fill-opacity="0.3"/>
<circle cx="268.955" cy="156.024" r="0.990013" fill="#959595" fill-opacity="0.3"/>
<circle cx="284.134" cy="156.024" r="0.990013" fill="#959595" fill-opacity="0.3"/>
<circle cx="299.314" cy="156.024" r="0.990013" fill="#959595" fill-opacity="0.3"/>
<circle cx="314.495" cy="156.024" r="0.990013" fill="#959595" fill-opacity="0.3"/>
<circle cx="329.675" cy="156.024" r="0.990013" fill="#959595" fill-opacity="0.3"/>
<circle cx="344.856" cy="156.024" r="0.990013" fill="#959595" fill-opacity="0.3"/>
<circle cx="360.035" cy="156.024" r="0.990013" fill="#959595" fill-opacity="0.3"/>
<circle cx="375.215" cy="156.024" r="0.990013" fill="#959595" fill-opacity="0.3"/>
<circle cx="390.396" cy="156.024" r="0.990013" fill="#959595" fill-opacity="0.3"/>
</g>
<g clip-path="url(#clip13_10148_144526)">
<circle cx="10.8909" cy="171.024" r="0.990013" fill="#959595" fill-opacity="0.3"/>
<circle cx="26.0711" cy="171.024" r="0.990013" fill="#959595" fill-opacity="0.3"/>
<circle cx="41.2517" cy="171.024" r="0.990013" fill="#959595" fill-opacity="0.3"/>
<circle cx="56.4309" cy="171.024" r="0.990013" fill="#959595" fill-opacity="0.3"/>
<circle cx="71.6118" cy="171.024" r="0.990013" fill="#959595" fill-opacity="0.3"/>
<circle cx="86.7918" cy="171.024" r="0.990013" fill="#959595" fill-opacity="0.3"/>
<circle cx="101.972" cy="171.024" r="0.990013" fill="#959595" fill-opacity="0.3"/>
<circle cx="117.153" cy="171.024" r="0.990013" fill="#959595" fill-opacity="0.3"/>
<circle cx="132.332" cy="171.024" r="0.990013" fill="#959595" fill-opacity="0.3"/>
<circle cx="147.513" cy="171.024" r="0.990013" fill="#959595" fill-opacity="0.3"/>
<circle cx="162.693" cy="171.024" r="0.990013" fill="#959595" fill-opacity="0.3"/>
<circle cx="177.873" cy="171.024" r="0.990013" fill="#959595" fill-opacity="0.3"/>
<circle cx="193.054" cy="171.024" r="0.990013" fill="#959595" fill-opacity="0.3"/>
<circle cx="208.233" cy="171.024" r="0.990013" fill="#959595" fill-opacity="0.3"/>
<circle cx="223.413" cy="171.024" r="0.990013" fill="#959595" fill-opacity="0.3"/>
<circle cx="238.594" cy="171.024" r="0.990013" fill="#959595" fill-opacity="0.3"/>
<circle cx="253.774" cy="171.024" r="0.990013" fill="#959595" fill-opacity="0.3"/>
<circle cx="268.955" cy="171.024" r="0.990013" fill="#959595" fill-opacity="0.3"/>
<circle cx="284.134" cy="171.024" r="0.990013" fill="#959595" fill-opacity="0.3"/>
<circle cx="299.314" cy="171.024" r="0.990013" fill="#959595" fill-opacity="0.3"/>
<circle cx="314.495" cy="171.024" r="0.990013" fill="#959595" fill-opacity="0.3"/>
<circle cx="329.675" cy="171.024" r="0.990013" fill="#959595" fill-opacity="0.3"/>
<circle cx="344.856" cy="171.024" r="0.990013" fill="#959595" fill-opacity="0.3"/>
<circle cx="360.035" cy="171.024" r="0.990013" fill="#959595" fill-opacity="0.3"/>
<circle cx="375.215" cy="171.024" r="0.990013" fill="#959595" fill-opacity="0.3"/>
<circle cx="390.396" cy="171.024" r="0.990013" fill="#959595" fill-opacity="0.3"/>
</g>
<g clip-path="url(#clip14_10148_144526)">
<circle cx="10.8909" cy="186.024" r="0.990013" fill="#959595" fill-opacity="0.3"/>
<circle cx="26.0711" cy="186.024" r="0.990013" fill="#959595" fill-opacity="0.3"/>
<circle cx="41.2517" cy="186.024" r="0.990013" fill="#959595" fill-opacity="0.3"/>
<circle cx="56.4309" cy="186.024" r="0.990013" fill="#959595" fill-opacity="0.3"/>
<circle cx="71.6118" cy="186.024" r="0.990013" fill="#959595" fill-opacity="0.3"/>
<circle cx="86.7918" cy="186.024" r="0.990013" fill="#959595" fill-opacity="0.3"/>
<circle cx="101.972" cy="186.024" r="0.990013" fill="#959595" fill-opacity="0.3"/>
<circle cx="117.153" cy="186.024" r="0.990013" fill="#959595" fill-opacity="0.3"/>
<circle cx="132.332" cy="186.024" r="0.990013" fill="#959595" fill-opacity="0.3"/>
<circle cx="147.513" cy="186.024" r="0.990013" fill="#959595" fill-opacity="0.3"/>
<circle cx="162.693" cy="186.024" r="0.990013" fill="#959595" fill-opacity="0.3"/>
<circle cx="177.873" cy="186.024" r="0.990013" fill="#959595" fill-opacity="0.3"/>
<circle cx="193.054" cy="186.024" r="0.990013" fill="#959595" fill-opacity="0.3"/>
<circle cx="208.233" cy="186.024" r="0.990013" fill="#959595" fill-opacity="0.3"/>
<circle cx="223.413" cy="186.024" r="0.990013" fill="#959595" fill-opacity="0.3"/>
<circle cx="238.594" cy="186.024" r="0.990013" fill="#959595" fill-opacity="0.3"/>
<circle cx="253.774" cy="186.024" r="0.990013" fill="#959595" fill-opacity="0.3"/>
<circle cx="268.955" cy="186.024" r="0.990013" fill="#959595" fill-opacity="0.3"/>
<circle cx="284.134" cy="186.024" r="0.990013" fill="#959595" fill-opacity="0.3"/>
<circle cx="299.314" cy="186.024" r="0.990013" fill="#959595" fill-opacity="0.3"/>
<circle cx="314.495" cy="186.024" r="0.990013" fill="#959595" fill-opacity="0.3"/>
<circle cx="329.675" cy="186.024" r="0.990013" fill="#959595" fill-opacity="0.3"/>
<circle cx="344.856" cy="186.024" r="0.990013" fill="#959595" fill-opacity="0.3"/>
<circle cx="360.035" cy="186.024" r="0.990013" fill="#959595" fill-opacity="0.3"/>
<circle cx="375.215" cy="186.024" r="0.990013" fill="#959595" fill-opacity="0.3"/>
<circle cx="390.396" cy="186.024" r="0.990013" fill="#959595" fill-opacity="0.3"/>
</g>
<g clip-path="url(#clip15_10148_144526)">
<circle cx="10.8909" cy="201.024" r="0.990013" fill="#959595" fill-opacity="0.3"/>
<circle cx="26.0711" cy="201.024" r="0.990013" fill="#959595" fill-opacity="0.3"/>
<circle cx="41.2517" cy="201.024" r="0.990013" fill="#959595" fill-opacity="0.3"/>
<circle cx="56.4309" cy="201.024" r="0.990013" fill="#959595" fill-opacity="0.3"/>
<circle cx="71.6118" cy="201.024" r="0.990013" fill="#959595" fill-opacity="0.3"/>
<circle cx="86.7918" cy="201.024" r="0.990013" fill="#959595" fill-opacity="0.3"/>
<circle cx="101.972" cy="201.024" r="0.990013" fill="#959595" fill-opacity="0.3"/>
<circle cx="117.153" cy="201.024" r="0.990013" fill="#959595" fill-opacity="0.3"/>
<circle cx="132.332" cy="201.024" r="0.990013" fill="#959595" fill-opacity="0.3"/>
<circle cx="147.513" cy="201.024" r="0.990013" fill="#959595" fill-opacity="0.3"/>
<circle cx="162.693" cy="201.024" r="0.990013" fill="#959595" fill-opacity="0.3"/>
<circle cx="177.873" cy="201.024" r="0.990013" fill="#959595" fill-opacity="0.3"/>
<circle cx="193.054" cy="201.024" r="0.990013" fill="#959595" fill-opacity="0.3"/>
<circle cx="208.233" cy="201.024" r="0.990013" fill="#959595" fill-opacity="0.3"/>
<circle cx="223.413" cy="201.024" r="0.990013" fill="#959595" fill-opacity="0.3"/>
<circle cx="238.594" cy="201.024" r="0.990013" fill="#959595" fill-opacity="0.3"/>
<circle cx="253.774" cy="201.024" r="0.990013" fill="#959595" fill-opacity="0.3"/>
<circle cx="268.955" cy="201.024" r="0.990013" fill="#959595" fill-opacity="0.3"/>
<circle cx="284.134" cy="201.024" r="0.990013" fill="#959595" fill-opacity="0.3"/>
<circle cx="299.314" cy="201.024" r="0.990013" fill="#959595" fill-opacity="0.3"/>
<circle cx="314.495" cy="201.024" r="0.990013" fill="#959595" fill-opacity="0.3"/>
<circle cx="329.675" cy="201.024" r="0.990013" fill="#959595" fill-opacity="0.3"/>
<circle cx="344.856" cy="201.024" r="0.990013" fill="#959595" fill-opacity="0.3"/>
<circle cx="360.035" cy="201.024" r="0.990013" fill="#959595" fill-opacity="0.3"/>
<circle cx="375.215" cy="201.024" r="0.990013" fill="#959595" fill-opacity="0.3"/>
<circle cx="390.396" cy="201.024" r="0.990013" fill="#959595" fill-opacity="0.3"/>
</g>
<g clip-path="url(#clip16_10148_144526)">
<circle cx="10.8909" cy="216.024" r="0.990013" fill="#959595" fill-opacity="0.3"/>
<circle cx="26.0711" cy="216.024" r="0.990013" fill="#959595" fill-opacity="0.3"/>
<circle cx="41.2517" cy="216.024" r="0.990013" fill="#959595" fill-opacity="0.3"/>
<circle cx="56.4309" cy="216.024" r="0.990013" fill="#959595" fill-opacity="0.3"/>
<circle cx="71.6118" cy="216.024" r="0.990013" fill="#959595" fill-opacity="0.3"/>
<circle cx="86.7918" cy="216.024" r="0.990013" fill="#959595" fill-opacity="0.3"/>
<circle cx="101.972" cy="216.024" r="0.990013" fill="#959595" fill-opacity="0.3"/>
<circle cx="117.153" cy="216.024" r="0.990013" fill="#959595" fill-opacity="0.3"/>
<circle cx="132.332" cy="216.024" r="0.990013" fill="#959595" fill-opacity="0.3"/>
<circle cx="147.513" cy="216.024" r="0.990013" fill="#959595" fill-opacity="0.3"/>
<circle cx="162.693" cy="216.024" r="0.990013" fill="#959595" fill-opacity="0.3"/>
<circle cx="177.873" cy="216.024" r="0.990013" fill="#959595" fill-opacity="0.3"/>
<circle cx="193.054" cy="216.024" r="0.990013" fill="#959595" fill-opacity="0.3"/>
<circle cx="208.233" cy="216.024" r="0.990013" fill="#959595" fill-opacity="0.3"/>
<circle cx="223.413" cy="216.024" r="0.990013" fill="#959595" fill-opacity="0.3"/>
<circle cx="238.594" cy="216.024" r="0.990013" fill="#959595" fill-opacity="0.3"/>
<circle cx="253.774" cy="216.024" r="0.990013" fill="#959595" fill-opacity="0.3"/>
<circle cx="268.955" cy="216.024" r="0.990013" fill="#959595" fill-opacity="0.3"/>
<circle cx="284.134" cy="216.024" r="0.990013" fill="#959595" fill-opacity="0.3"/>
<circle cx="299.314" cy="216.024" r="0.990013" fill="#959595" fill-opacity="0.3"/>
<circle cx="314.495" cy="216.024" r="0.990013" fill="#959595" fill-opacity="0.3"/>
<circle cx="329.675" cy="216.024" r="0.990013" fill="#959595" fill-opacity="0.3"/>
<circle cx="344.856" cy="216.024" r="0.990013" fill="#959595" fill-opacity="0.3"/>
<circle cx="360.035" cy="216.024" r="0.990013" fill="#959595" fill-opacity="0.3"/>
<circle cx="375.215" cy="216.024" r="0.990013" fill="#959595" fill-opacity="0.3"/>
<circle cx="390.396" cy="216.024" r="0.990013" fill="#959595" fill-opacity="0.3"/>
</g>
<g clip-path="url(#clip17_10148_144526)">
<circle cx="10.8909" cy="231.024" r="0.990013" fill="#959595" fill-opacity="0.3"/>
<circle cx="26.0711" cy="231.024" r="0.990013" fill="#959595" fill-opacity="0.3"/>
<circle cx="41.2517" cy="231.024" r="0.990013" fill="#959595" fill-opacity="0.3"/>
<circle cx="56.4309" cy="231.024" r="0.990013" fill="#959595" fill-opacity="0.3"/>
<circle cx="71.6118" cy="231.024" r="0.990013" fill="#959595" fill-opacity="0.3"/>
<circle cx="86.7918" cy="231.024" r="0.990013" fill="#959595" fill-opacity="0.3"/>
<circle cx="101.972" cy="231.024" r="0.990013" fill="#959595" fill-opacity="0.3"/>
<circle cx="117.153" cy="231.024" r="0.990013" fill="#959595" fill-opacity="0.3"/>
<circle cx="132.332" cy="231.024" r="0.990013" fill="#959595" fill-opacity="0.3"/>
<circle cx="147.513" cy="231.024" r="0.990013" fill="#959595" fill-opacity="0.3"/>
<circle cx="162.693" cy="231.024" r="0.990013" fill="#959595" fill-opacity="0.3"/>
<circle cx="177.873" cy="231.024" r="0.990013" fill="#959595" fill-opacity="0.3"/>
<circle cx="193.054" cy="231.024" r="0.990013" fill="#959595" fill-opacity="0.3"/>
<circle cx="208.233" cy="231.024" r="0.990013" fill="#959595" fill-opacity="0.3"/>
<circle cx="223.413" cy="231.024" r="0.990013" fill="#959595" fill-opacity="0.3"/>
<circle cx="238.594" cy="231.024" r="0.990013" fill="#959595" fill-opacity="0.3"/>
<circle cx="253.774" cy="231.024" r="0.990013" fill="#959595" fill-opacity="0.3"/>
<circle cx="268.955" cy="231.024" r="0.990013" fill="#959595" fill-opacity="0.3"/>
<circle cx="284.134" cy="231.024" r="0.990013" fill="#959595" fill-opacity="0.3"/>
<circle cx="299.314" cy="231.024" r="0.990013" fill="#959595" fill-opacity="0.3"/>
<circle cx="314.495" cy="231.024" r="0.990013" fill="#959595" fill-opacity="0.3"/>
<circle cx="329.675" cy="231.024" r="0.990013" fill="#959595" fill-opacity="0.3"/>
<circle cx="344.856" cy="231.024" r="0.990013" fill="#959595" fill-opacity="0.3"/>
<circle cx="360.035" cy="231.024" r="0.990013" fill="#959595" fill-opacity="0.3"/>
<circle cx="375.215" cy="231.024" r="0.990013" fill="#959595" fill-opacity="0.3"/>
<circle cx="390.396" cy="231.024" r="0.990013" fill="#959595" fill-opacity="0.3"/>
</g>
<g clip-path="url(#clip18_10148_144526)">
<circle cx="10.8909" cy="246.024" r="0.990013" fill="#959595" fill-opacity="0.3"/>
<circle cx="26.0711" cy="246.024" r="0.990013" fill="#959595" fill-opacity="0.3"/>
<circle cx="41.2517" cy="246.024" r="0.990013" fill="#959595" fill-opacity="0.3"/>
<circle cx="56.4309" cy="246.024" r="0.990013" fill="#959595" fill-opacity="0.3"/>
<circle cx="71.6118" cy="246.024" r="0.990013" fill="#959595" fill-opacity="0.3"/>
<circle cx="86.7918" cy="246.024" r="0.990013" fill="#959595" fill-opacity="0.3"/>
<circle cx="101.972" cy="246.024" r="0.990013" fill="#959595" fill-opacity="0.3"/>
<circle cx="117.153" cy="246.024" r="0.990013" fill="#959595" fill-opacity="0.3"/>
<circle cx="132.332" cy="246.024" r="0.990013" fill="#959595" fill-opacity="0.3"/>
<circle cx="147.513" cy="246.024" r="0.990013" fill="#959595" fill-opacity="0.3"/>
<circle cx="162.693" cy="246.024" r="0.990013" fill="#959595" fill-opacity="0.3"/>
<circle cx="177.873" cy="246.024" r="0.990013" fill="#959595" fill-opacity="0.3"/>
<circle cx="193.054" cy="246.024" r="0.990013" fill="#959595" fill-opacity="0.3"/>
<circle cx="208.233" cy="246.024" r="0.990013" fill="#959595" fill-opacity="0.3"/>
<circle cx="223.413" cy="246.024" r="0.990013" fill="#959595" fill-opacity="0.3"/>
<circle cx="238.594" cy="246.024" r="0.990013" fill="#959595" fill-opacity="0.3"/>
<circle cx="253.774" cy="246.024" r="0.990013" fill="#959595" fill-opacity="0.3"/>
<circle cx="268.955" cy="246.024" r="0.990013" fill="#959595" fill-opacity="0.3"/>
<circle cx="284.134" cy="246.024" r="0.990013" fill="#959595" fill-opacity="0.3"/>
<circle cx="299.314" cy="246.024" r="0.990013" fill="#959595" fill-opacity="0.3"/>
<circle cx="314.495" cy="246.024" r="0.990013" fill="#959595" fill-opacity="0.3"/>
<circle cx="329.675" cy="246.024" r="0.990013" fill="#959595" fill-opacity="0.3"/>
<circle cx="344.856" cy="246.024" r="0.990013" fill="#959595" fill-opacity="0.3"/>
<circle cx="360.035" cy="246.024" r="0.990013" fill="#959595" fill-opacity="0.3"/>
<circle cx="375.215" cy="246.024" r="0.990013" fill="#959595" fill-opacity="0.3"/>
<circle cx="390.396" cy="246.024" r="0.990013" fill="#959595" fill-opacity="0.3"/>
</g>
<g clip-path="url(#clip19_10148_144526)">
<circle cx="10.8909" cy="261.024" r="0.990013" fill="#959595" fill-opacity="0.3"/>
<circle cx="26.0711" cy="261.024" r="0.990013" fill="#959595" fill-opacity="0.3"/>
<circle cx="41.2517" cy="261.024" r="0.990013" fill="#959595" fill-opacity="0.3"/>
<circle cx="56.4309" cy="261.024" r="0.990013" fill="#959595" fill-opacity="0.3"/>
<circle cx="71.6118" cy="261.024" r="0.990013" fill="#959595" fill-opacity="0.3"/>
<circle cx="86.7918" cy="261.024" r="0.990013" fill="#959595" fill-opacity="0.3"/>
<circle cx="101.972" cy="261.024" r="0.990013" fill="#959595" fill-opacity="0.3"/>
<circle cx="117.153" cy="261.024" r="0.990013" fill="#959595" fill-opacity="0.3"/>
<circle cx="132.332" cy="261.024" r="0.990013" fill="#959595" fill-opacity="0.3"/>
<circle cx="147.513" cy="261.024" r="0.990013" fill="#959595" fill-opacity="0.3"/>
<circle cx="162.693" cy="261.024" r="0.990013" fill="#959595" fill-opacity="0.3"/>
<circle cx="177.873" cy="261.024" r="0.990013" fill="#959595" fill-opacity="0.3"/>
<circle cx="193.054" cy="261.024" r="0.990013" fill="#959595" fill-opacity="0.3"/>
<circle cx="208.233" cy="261.024" r="0.990013" fill="#959595" fill-opacity="0.3"/>
<circle cx="223.413" cy="261.024" r="0.990013" fill="#959595" fill-opacity="0.3"/>
<circle cx="238.594" cy="261.024" r="0.990013" fill="#959595" fill-opacity="0.3"/>
<circle cx="253.774" cy="261.024" r="0.990013" fill="#959595" fill-opacity="0.3"/>
<circle cx="268.955" cy="261.024" r="0.990013" fill="#959595" fill-opacity="0.3"/>
<circle cx="284.134" cy="261.024" r="0.990013" fill="#959595" fill-opacity="0.3"/>
<circle cx="299.314" cy="261.024" r="0.990013" fill="#959595" fill-opacity="0.3"/>
<circle cx="314.495" cy="261.024" r="0.990013" fill="#959595" fill-opacity="0.3"/>
<circle cx="329.675" cy="261.024" r="0.990013" fill="#959595" fill-opacity="0.3"/>
<circle cx="344.856" cy="261.024" r="0.990013" fill="#959595" fill-opacity="0.3"/>
<circle cx="360.035" cy="261.024" r="0.990013" fill="#959595" fill-opacity="0.3"/>
<circle cx="375.215" cy="261.024" r="0.990013" fill="#959595" fill-opacity="0.3"/>
<circle cx="390.396" cy="261.024" r="0.990013" fill="#959595" fill-opacity="0.3"/>
</g>
<g clip-path="url(#clip20_10148_144526)">
<circle cx="10.8909" cy="276.024" r="0.990013" fill="#959595" fill-opacity="0.3"/>
<circle cx="26.0711" cy="276.024" r="0.990013" fill="#959595" fill-opacity="0.3"/>
<circle cx="41.2517" cy="276.024" r="0.990013" fill="#959595" fill-opacity="0.3"/>
<circle cx="56.4309" cy="276.024" r="0.990013" fill="#959595" fill-opacity="0.3"/>
<circle cx="71.6118" cy="276.024" r="0.990013" fill="#959595" fill-opacity="0.3"/>
<circle cx="86.7918" cy="276.024" r="0.990013" fill="#959595" fill-opacity="0.3"/>
<circle cx="101.972" cy="276.024" r="0.990013" fill="#959595" fill-opacity="0.3"/>
<circle cx="117.153" cy="276.024" r="0.990013" fill="#959595" fill-opacity="0.3"/>
<circle cx="132.332" cy="276.024" r="0.990013" fill="#959595" fill-opacity="0.3"/>
<circle cx="147.513" cy="276.024" r="0.990013" fill="#959595" fill-opacity="0.3"/>
<circle cx="162.693" cy="276.024" r="0.990013" fill="#959595" fill-opacity="0.3"/>
<circle cx="177.873" cy="276.024" r="0.990013" fill="#959595" fill-opacity="0.3"/>
<circle cx="193.054" cy="276.024" r="0.990013" fill="#959595" fill-opacity="0.3"/>
<circle cx="208.233" cy="276.024" r="0.990013" fill="#959595" fill-opacity="0.3"/>
<circle cx="223.413" cy="276.024" r="0.990013" fill="#959595" fill-opacity="0.3"/>
<circle cx="238.594" cy="276.024" r="0.990013" fill="#959595" fill-opacity="0.3"/>
<circle cx="253.774" cy="276.024" r="0.990013" fill="#959595" fill-opacity="0.3"/>
<circle cx="268.955" cy="276.024" r="0.990013" fill="#959595" fill-opacity="0.3"/>
<circle cx="284.134" cy="276.024" r="0.990013" fill="#959595" fill-opacity="0.3"/>
<circle cx="299.314" cy="276.024" r="0.990013" fill="#959595" fill-opacity="0.3"/>
<circle cx="314.495" cy="276.024" r="0.990013" fill="#959595" fill-opacity="0.3"/>
<circle cx="329.675" cy="276.024" r="0.990013" fill="#959595" fill-opacity="0.3"/>
<circle cx="344.856" cy="276.024" r="0.990013" fill="#959595" fill-opacity="0.3"/>
<circle cx="360.035" cy="276.024" r="0.990013" fill="#959595" fill-opacity="0.3"/>
<circle cx="375.215" cy="276.024" r="0.990013" fill="#959595" fill-opacity="0.3"/>
<circle cx="390.396" cy="276.024" r="0.990013" fill="#959595" fill-opacity="0.3"/>
</g>
<g clip-path="url(#clip21_10148_144526)">
<circle cx="10.8909" cy="291.024" r="0.990013" fill="#959595" fill-opacity="0.3"/>
<circle cx="26.0711" cy="291.024" r="0.990013" fill="#959595" fill-opacity="0.3"/>
<circle cx="41.2517" cy="291.024" r="0.990013" fill="#959595" fill-opacity="0.3"/>
<circle cx="56.4309" cy="291.024" r="0.990013" fill="#959595" fill-opacity="0.3"/>
<circle cx="71.6118" cy="291.024" r="0.990013" fill="#959595" fill-opacity="0.3"/>
<circle cx="86.7918" cy="291.024" r="0.990013" fill="#959595" fill-opacity="0.3"/>
<circle cx="101.972" cy="291.024" r="0.990013" fill="#959595" fill-opacity="0.3"/>
<circle cx="117.153" cy="291.024" r="0.990013" fill="#959595" fill-opacity="0.3"/>
<circle cx="132.332" cy="291.024" r="0.990013" fill="#959595" fill-opacity="0.3"/>
<circle cx="147.513" cy="291.024" r="0.990013" fill="#959595" fill-opacity="0.3"/>
<circle cx="162.693" cy="291.024" r="0.990013" fill="#959595" fill-opacity="0.3"/>
<circle cx="177.873" cy="291.024" r="0.990013" fill="#959595" fill-opacity="0.3"/>
<circle cx="193.054" cy="291.024" r="0.990013" fill="#959595" fill-opacity="0.3"/>
<circle cx="208.233" cy="291.024" r="0.990013" fill="#959595" fill-opacity="0.3"/>
<circle cx="223.413" cy="291.024" r="0.990013" fill="#959595" fill-opacity="0.3"/>
<circle cx="238.594" cy="291.024" r="0.990013" fill="#959595" fill-opacity="0.3"/>
<circle cx="253.774" cy="291.024" r="0.990013" fill="#959595" fill-opacity="0.3"/>
<circle cx="268.955" cy="291.024" r="0.990013" fill="#959595" fill-opacity="0.3"/>
<circle cx="284.134" cy="291.024" r="0.990013" fill="#959595" fill-opacity="0.3"/>
<circle cx="299.314" cy="291.024" r="0.990013" fill="#959595" fill-opacity="0.3"/>
<circle cx="314.495" cy="291.024" r="0.990013" fill="#959595" fill-opacity="0.3"/>
<circle cx="329.675" cy="291.024" r="0.990013" fill="#959595" fill-opacity="0.3"/>
<circle cx="344.856" cy="291.024" r="0.990013" fill="#959595" fill-opacity="0.3"/>
<circle cx="360.035" cy="291.024" r="0.990013" fill="#959595" fill-opacity="0.3"/>
<circle cx="375.215" cy="291.024" r="0.990013" fill="#959595" fill-opacity="0.3"/>
<circle cx="390.396" cy="291.024" r="0.990013" fill="#959595" fill-opacity="0.3"/>
</g>
</g>
<rect x="37" y="125" width="141" height="9" rx="4.5" fill="#474747"/>
<rect x="37" y="138" width="326" height="42" rx="4" fill="#2C2C2C"/>
<path d="M343.22 157.47C343.513 157.177 343.987 157.177 344.28 157.47L347 160.189L349.72 157.47C350.013 157.177 350.487 157.177 350.78 157.47C351.073 157.763 351.073 158.237 350.78 158.53L347.53 161.78C347.237 162.073 346.763 162.073 346.47 161.78L343.22 158.53C342.927 158.237 342.927 157.763 343.22 157.47Z" fill="white" fill-opacity="0.88"/>
<rect x="49" y="156" width="145" height="7" rx="3.5" fill="#474747"/>
<rect x="37.5" y="184.5" width="325" height="123" rx="3.5" fill="#2C2C2C"/>
<rect x="37.5" y="184.5" width="325" height="123" rx="3.5" stroke="#393939"/>
<path d="M64.8639 201.656C65.0533 201.857 65.0439 202.173 64.8429 202.363L56.9131 209.837C56.6757 210.06 56.3031 210.054 56.0742 209.821L53.3938 207.101C53.2 206.904 53.2024 206.588 53.3991 206.394C53.5958 206.2 53.9124 206.202 54.1062 206.399L56.5119 208.841L64.1571 201.635C64.358 201.446 64.6745 201.455 64.8639 201.656Z" fill="white" fill-opacity="0.88"/>
<rect x="75" y="202.5" width="145" height="7" rx="3.5" fill="#474747"/>
<path d="M63.3639 241.656C63.5533 241.857 63.5439 242.173 63.3429 242.363L55.4131 249.837C55.1757 250.06 54.8031 250.054 54.5742 249.821L51.8938 247.101C51.7 246.904 51.7024 246.588 51.8991 246.394C52.0958 246.2 52.4124 246.202 52.6062 246.399L55.0119 248.841L62.6571 241.635C62.858 241.446 63.1745 241.455 63.3639 241.656Z" fill="#2C2C2C"/>
<rect x="73.5" y="242.5" width="145" height="7" rx="3.5" fill="#474747"/>
<path d="M63.3639 281.656C63.5533 281.857 63.5439 282.173 63.3429 282.363L55.4131 289.837C55.1757 290.06 54.8031 290.054 54.5742 289.821L51.8938 287.101C51.7 286.904 51.7024 286.588 51.8991 286.394C52.0958 286.2 52.4124 286.202 52.6062 286.399L55.0119 288.841L62.6571 281.635C62.858 281.446 63.1745 281.455 63.3639 281.656Z" fill="#2C2C2C"/>
<rect x="73.5" y="282.5" width="145" height="7" rx="3.5" fill="#474747"/>
</g>
<defs>
<clipPath id="clip0_10148_144526">
<rect width="400" height="300" fill="white"/>
</clipPath>
<clipPath id="clip1_10148_144526">
<rect width="400" height="300" fill="white"/>
</clipPath>
<clipPath id="clip2_10148_144526">
<rect width="412" height="15" fill="white" transform="translate(-5 5)"/>
</clipPath>
<clipPath id="clip3_10148_144526">
<rect width="412" height="15" fill="white" transform="translate(-5 20)"/>
</clipPath>
<clipPath id="clip4_10148_144526">
<rect width="412" height="15" fill="white" transform="translate(-5 35)"/>
</clipPath>
<clipPath id="clip5_10148_144526">
<rect width="412" height="15" fill="white" transform="translate(-5 50)"/>
</clipPath>
<clipPath id="clip6_10148_144526">
<rect width="412" height="15" fill="white" transform="translate(-5 65)"/>
</clipPath>
<clipPath id="clip7_10148_144526">
<rect width="412" height="15" fill="white" transform="translate(-5 80)"/>
</clipPath>
<clipPath id="clip8_10148_144526">
<rect width="412" height="15" fill="white" transform="translate(-5 95)"/>
</clipPath>
<clipPath id="clip9_10148_144526">
<rect width="412" height="15" fill="white" transform="translate(-5 110)"/>
</clipPath>
<clipPath id="clip10_10148_144526">
<rect width="412" height="15" fill="white" transform="translate(-5 125)"/>
</clipPath>
<clipPath id="clip11_10148_144526">
<rect width="412" height="15" fill="white" transform="translate(-5 140)"/>
</clipPath>
<clipPath id="clip12_10148_144526">
<rect width="412" height="15" fill="white" transform="translate(-5 155)"/>
</clipPath>
<clipPath id="clip13_10148_144526">
<rect width="412" height="15" fill="white" transform="translate(-5 170)"/>
</clipPath>
<clipPath id="clip14_10148_144526">
<rect width="412" height="15" fill="white" transform="translate(-5 185)"/>
</clipPath>
<clipPath id="clip15_10148_144526">
<rect width="412" height="15" fill="white" transform="translate(-5 200)"/>
</clipPath>
<clipPath id="clip16_10148_144526">
<rect width="412" height="15" fill="white" transform="translate(-5 215)"/>
</clipPath>
<clipPath id="clip17_10148_144526">
<rect width="412" height="15" fill="white" transform="translate(-5 230)"/>
</clipPath>
<clipPath id="clip18_10148_144526">
<rect width="412" height="15" fill="white" transform="translate(-5 245)"/>
</clipPath>
<clipPath id="clip19_10148_144526">
<rect width="412" height="15" fill="white" transform="translate(-5 260)"/>
</clipPath>
<clipPath id="clip20_10148_144526">
<rect width="412" height="15" fill="white" transform="translate(-5 275)"/>
</clipPath>
<clipPath id="clip21_10148_144526">
<rect width="412" height="15" fill="white" transform="translate(-5 290)"/>
</clipPath>
</defs>
</svg>
